<?xml version="1.0" encoding="utf-8"?>
<!-- Generator: Adobe Illustrator 21.0.0, SVG Export Plug-In . SVG Version: 6.00 Build 0)  -->
<svg version="1.1" id="Layer_1" xmlns="http://www.w3.org/2000/svg" xmlns:xlink="http://www.w3.org/1999/xlink" x="0px" y="0px"
	 viewBox="0 0 141 112.8" style="enable-background:new 0 0 141 112.8;" xml:space="preserve">
<style type="text/css">
	.st0{fill:#8BC53F;}
	.st1{fill:#282827;}
    </style>
<g>
	<path class="st0" d="M7.2,38.9v38c0,0,4.2,0.9,8,0v-38C15.1,38.9,11.4,35.5,7.2,38.9z"/>
</g>
<g>
	<path class="st0" d="M11.2,21.2c-3.2,0-5.9,2.6-5.9,5.9S7.9,33,11.2,33s5.9-2.6,5.9-5.9S14.4,21.2,11.2,21.2z M11.2,31.5
		c-2.4,0-4.4-2-4.4-4.4s2-4.4,4.4-4.4s4.4,2,4.4,4.4S13.6,31.5,11.2,31.5z">
        <animateTransform attributeName="transform"
                          attributeType="XML"
                          type="translate"
                          dur="1s"
                          values="0,6;0,-6;0,6"
                          repeatCount="indefinite"
                          
                          />
            
        
    </path>
</g>
<g>
	<path class="st1" d="M24.2,77.3h-0.8V60.9h0.7l5.6,14v-14h0.8v16.3h-0.6l-5.6-14V77.3z"/>
	<path class="st1" d="M38.2,61.7v7h5.1v0.8h-5.1v7.8h-0.8V60.9h5.9v0.8H38.2z"/>
	<path class="st1" d="M49.4,77.3h-0.8l1.3-5.7v-0.1l2.5-10.6H53l3.7,16.3H56l-1.1-5h-4.3L49.4,77.3z M52.7,63l-2,8.5h3.9L52.7,63z"
		/>
	<path class="st1" d="M63.4,77.3h-0.8V60.9h0.7l5.6,14v-14h0.8v16.3H69l-5.6-14V77.3z"/>
	<path class="st1" d="M79.9,77.3c-0.4,0-0.8-0.1-1.2-0.2c-0.4-0.1-0.8-0.3-1.1-0.7c-0.3-0.3-0.6-0.8-0.8-1.3
		c-0.2-0.6-0.3-1.3-0.3-2.2v-7.7c0-0.9,0.1-1.6,0.3-2.2c0.2-0.6,0.5-1,0.8-1.3c0.3-0.3,0.7-0.5,1.1-0.6c0.4-0.1,0.8-0.2,1.2-0.2
		c0.4,0,0.8,0.1,1.2,0.2c0.4,0.1,0.8,0.3,1.1,0.6c0.3,0.3,0.6,0.8,0.8,1.3c0.2,0.6,0.3,1.3,0.3,2.2v0.4h-0.8v-0.4
		c0-1.2-0.2-2.1-0.7-2.7c-0.5-0.6-1.1-0.8-2-0.8c-0.9,0-1.6,0.3-2,0.8c-0.5,0.6-0.7,1.5-0.7,2.7v7.7c0,1.2,0.2,2.2,0.7,2.7
		c0.4,0.6,1.1,0.8,2,0.8c0.9,0,1.5-0.3,2-0.8c0.5-0.6,0.7-1.5,0.7-2.7v-0.4h0.8v0.4c0,0.9-0.1,1.6-0.3,2.2c-0.2,0.6-0.5,1-0.8,1.3
		c-0.3,0.3-0.7,0.5-1.1,0.7C80.7,77.2,80.3,77.3,79.9,77.3z"/>
	<path class="st1" d="M98.1,60.9l-4.5,8.3v8.1h-0.8v-8.1l-4.6-8.3h0.9l4,7.4l4-7.4H98.1z"/>
</g>
<g>
	<path class="st1" d="M115.6,60.8h4.4v16.5h-4.4V60.8z"/>
	<path class="st1" d="M121.2,60.8H134v3.9h-4.3v12.6h-4.4V64.7h-4.1V60.8z"/>
</g>
<g>
	<path class="st0" d="M106.2,99.3c1.7-4.9,2.6-10,2-14.9c-0.6-5-2.4-9.8-3.6-14.9c-0.6-2.5-1-5.2-1.2-7.8c-0.1-2.6,0-5.3,0.4-7.9
		c0.8-5.2,2.7-10.1,5.1-14.7c-1.6,4.9-2.9,9.9-3.4,14.9c-0.5,5,0,10,1.2,15c0.6,2.5,1.3,4.9,1.9,7.5c0.6,2.5,1.1,5.1,1.2,7.8
		c0.2,2.6-0.1,5.3-0.8,7.9C108.5,94.6,107.5,97.1,106.2,99.3z"/>
</g>
</svg>
