<svg xmlns="http://www.w3.org/2000/svg" id="Layer_1" data-name="Layer 1" viewBox="0 0 206.13 32.4"><defs><style>.cls-1{fill:#fff;}.cls-2{isolation:isolate;}.cls-3{fill:#53ae25;}.cls-4{fill:#274e12;}</style></defs><rect class="cls-1" width="206.13" height="32.08"></rect><g id="Logo"><g id="TechCare" class="cls-2"><g class="cls-2"><path class="cls-3" d="M70.36,5.41H62.52V28.87H58V5.41H50.16V1.56h20.2Z" transform="translate(0)"></path><path class="cls-3" d="M86.2,20.32H72.9a5.63,5.63,0,0,0,1.67,4.17A6.19,6.19,0,0,0,78.94,26a9.67,9.67,0,0,0,5.73-1.87v3.56a13,13,0,0,1-7,1.68,8.72,8.72,0,0,1-6.75-2.66c-1.64-1.77-2.45-4.26-2.45-7.47a10.41,10.41,0,0,1,2.69-7.42,8.83,8.83,0,0,1,6.7-2.87A7.71,7.71,0,0,1,84,11.48a10.69,10.69,0,0,1,2.19,7.14ZM81.93,17.2a5.72,5.72,0,0,0-1.12-3.71,3.78,3.78,0,0,0-3-1.32,4.28,4.28,0,0,0-3.23,1.39A6.42,6.42,0,0,0,72.9,17.2Z" transform="translate(0)"></path><path class="cls-3" d="M104,28a10.81,10.81,0,0,1-5.54,1.36,9.4,9.4,0,0,1-7-2.72,9.63,9.63,0,0,1-2.66-7,10.59,10.59,0,0,1,2.86-7.75,10.29,10.29,0,0,1,7.67-2.92,11,11,0,0,1,4.7.94V14a7.08,7.08,0,0,0-4.34-1.52,6,6,0,0,0-4.59,1.89,6.94,6.94,0,0,0-1.79,5A6.58,6.58,0,0,0,95,24.07a6,6,0,0,0,4.52,1.75A7,7,0,0,0,104,24.13Z" transform="translate(0)"></path><path class="cls-3" d="M125.29,28.87h-4.42V18.21q0-5.79-3.86-5.79a4,4,0,0,0-3.28,1.67,6.68,6.68,0,0,0-1.33,4.29V28.87H108V0h4.44V12.61h.08a7,7,0,0,1,6.32-3.7q6.49,0,6.49,7.94Z" transform="translate(0)"></path></g><g class="cls-2"><path class="cls-4" d="M150.43,27.73a16.67,16.67,0,0,1-7.68,1.6,12.52,12.52,0,0,1-9.52-3.76,13.69,13.69,0,0,1-3.58-9.84,14.36,14.36,0,0,1,4-10.59,13.8,13.8,0,0,1,10.18-4,16.66,16.66,0,0,1,6.57,1.13V6.72a11.73,11.73,0,0,0-6.09-1.64,9.56,9.56,0,0,0-7.19,2.84,10.4,10.4,0,0,0-2.75,7.58A9.91,9.91,0,0,0,137,22.69a9,9,0,0,0,6.76,2.68,12.1,12.1,0,0,0,6.7-1.83Z" transform="translate(0)"></path><path class="cls-4" d="M169.69,28.87h-4.28V25.82h-.08a6.44,6.44,0,0,1-5.92,3.51,6.18,6.18,0,0,1-4.5-1.57,5.43,5.43,0,0,1-1.63-4.13q0-5.52,6.36-6.43l5.79-.82q0-4.17-4-4.17a9.41,9.41,0,0,0-6.28,2.4V10.74a13.7,13.7,0,0,1,7.12-1.83q7.39,0,7.39,7.28Zm-4.26-9.58-4.1.57a6.39,6.39,0,0,0-2.86.93,2.68,2.68,0,0,0-1,2.37,2.58,2.58,0,0,0,.89,2,3.41,3.41,0,0,0,2.37.79,4.37,4.37,0,0,0,3.34-1.41A5.06,5.06,0,0,0,165.43,21Z" transform="translate(0)"></path><path class="cls-4" d="M186,13.58a3.64,3.64,0,0,0-2.3-.63,4,4,0,0,0-3.28,1.77,8,8,0,0,0-1.31,4.82v9.33h-4.42V9.37h4.42v4h.08a6.83,6.83,0,0,1,2-3.21,4.5,4.5,0,0,1,3-1.15,3.75,3.75,0,0,1,1.83.36Z" transform="translate(0)"></path><path class="cls-4" d="M204.9,20.32H191.61a5.63,5.63,0,0,0,1.67,4.17A6.18,6.18,0,0,0,197.65,26a9.67,9.67,0,0,0,5.73-1.87v3.56a13.09,13.09,0,0,1-7,1.68,8.72,8.72,0,0,1-6.75-2.66q-2.45-2.66-2.44-7.47a10.37,10.37,0,0,1,2.69-7.42,8.83,8.83,0,0,1,6.69-2.87,7.69,7.69,0,0,1,6.19,2.57,10.69,10.69,0,0,1,2.19,7.14Zm-4.26-3.12a5.72,5.72,0,0,0-1.13-3.71,3.74,3.74,0,0,0-3-1.32,4.28,4.28,0,0,0-3.23,1.39,6.36,6.36,0,0,0-1.63,3.64Z" transform="translate(0)"></path></g></g><g id="Group_23813" data-name="Group 23813"><path id="Path_31526" data-name="Path 31526" class="cls-4" d="M37.26,1.21v17A13.57,13.57,0,0,1,34,27.77c-2.8,3.07-7,4.63-12.61,4.63h-12V27.19H21.26c4.07,0,7-1,8.81-2.89a8.38,8.38,0,0,0,2-5.75V1.2Z" transform="translate(0)"></path></g><g id="Group_23814" data-name="Group 23814"><path id="Path_31527" data-name="Path 31527" class="cls-3" d="M15.93,1.18H28V6.39h-12c-4,0-7,1-8.77,2.92a8.34,8.34,0,0,0-2,5.69V32.08H0V15.34a13.51,13.51,0,0,1,3.3-9.53C6.12,2.73,10.36,1.18,15.93,1.18Z" transform="translate(0)"></path></g></g></svg>