<?xml version="1.0" encoding="UTF-8"?>
<svg xmlns="http://www.w3.org/2000/svg" xmlns:xlink="http://www.w3.org/1999/xlink" width="448.31pt" height="273.32pt" viewBox="0 0 448.31 273.32" version="1.1">
<defs>
<clipPath id="clip1">
  <path d="M 0 136 L 54 136 L 54 273.320313 L 0 273.320313 Z M 0 136 "/>
</clipPath>
<clipPath id="clip2">
  <path d="M 394 0 L 448.308594 0 L 448.308594 137 L 394 137 Z M 394 0 "/>
</clipPath>
</defs>
<g id="surface1">
<path style=" stroke:none;fill-rule:evenodd;fill:rgb(97.253418%,59.214783%,11.372375%);fill-opacity:1;" d="M 113.9375 99.535156 L 92.949219 158.875 L 72.246094 99.535156 L 50.664063 99.535156 L 83.269531 186.171875 L 101.761719 186.171875 L 134.988281 99.535156 L 113.9375 99.535156 "/>
<path style=" stroke:none;fill-rule:evenodd;fill:rgb(97.253418%,59.214783%,11.372375%);fill-opacity:1;" d="M 155.214844 99.617188 L 155.214844 186.273438 L 174.566406 186.273438 L 174.566406 99.617188 L 155.214844 99.617188 "/>
<path style=" stroke:none;fill-rule:evenodd;fill:rgb(97.253418%,59.214783%,11.372375%);fill-opacity:1;" d="M 199.5 99.617188 L 199.484375 117.34375 L 235.910156 117.34375 L 198.617188 172.816406 L 198.617188 186.171875 L 260.226563 186.171875 L 260.226563 168.648438 L 222.761719 168.648438 L 259.429688 113.570313 L 259.429688 99.617188 L 199.5 99.617188 "/>
<path style=" stroke:none;fill-rule:evenodd;fill:rgb(97.253418%,59.214783%,11.372375%);fill-opacity:1;" d="M 304.0625 99.589844 C 298.449219 99.589844 294.074219 100.488281 289.664063 104.894531 C 285.449219 109.105469 283.308594 114.257813 283.308594 120.261719 L 283.308594 186.148438 L 302.632813 186.148438 L 302.632813 123.230469 C 302.632813 121.589844 303.210938 120.226563 304.386719 119.046875 C 305.367188 118.0625 307.601563 117.304688 309.605469 117.304688 L 325.753906 117.304688 L 325.753906 99.589844 L 304.0625 99.589844 "/>
<path style=" stroke:none;fill-rule:evenodd;fill:rgb(97.253418%,59.214783%,11.372375%);fill-opacity:1;" d="M 344.675781 73.300781 L 344.675781 164.890625 C 344.675781 170.757813 346.75 175.835938 350.886719 179.972656 C 355.21875 184.316406 359.445313 186.171875 364.992188 186.171875 L 386.261719 186.171875 L 386.261719 168.703125 L 370.382813 168.703125 C 368.785156 168.703125 367.484375 168.152344 366.308594 167.015625 C 365.191406 165.863281 364.632813 164.566406 364.632813 162.949219 L 364.632813 117.308594 L 386.261719 117.308594 L 386.261719 99.671875 L 364.632813 99.671875 L 364.632813 73.300781 L 344.675781 73.300781 "/>
<g clip-path="url(#clip1)" clip-rule="nonzero">
<path style=" stroke:none;fill-rule:evenodd;fill:rgb(97.253418%,59.214783%,11.372375%);fill-opacity:1;" d="M 0 136.570313 C -0.0390625 187.984375 17.324219 235.417969 46.554688 273.320313 L 53.480469 252.855469 C 32.933594 222.796875 20.136719 187.050781 17.953125 148.488281 L 0 136.570313 "/>
</g>
<g clip-path="url(#clip2)" clip-rule="nonzero">
<path style=" stroke:none;fill-rule:evenodd;fill:rgb(97.253418%,59.214783%,11.372375%);fill-opacity:1;" d="M 448.3125 136.726563 C 448.359375 85.328125 430.996094 37.871094 401.773438 0 L 394.828125 20.433594 C 415.382813 50.503906 428.1875 86.269531 430.351563 124.804688 L 448.3125 136.726563 "/>
</g>
</g>
</svg>
