<svg id="Lag_1" data-name="Lag 1" xmlns="http://www.w3.org/2000/svg" viewBox="0 0 144.25 32"><defs><style>.cls-1{fill:#ff7e00;}</style></defs><title>FT_website_logo</title><path class="cls-1" d="M32.67,3H3.07V32.6h29.6ZM19.23,15.82a6.57,6.57,0,0,1,2.7,1.2,3.71,3.71,0,0,1,1.17,1.49H20.52a2.76,2.76,0,0,0-1.25-1.64,6.18,6.18,0,0,0-2.87-.71h-.15v-.69A4.1,4.1,0,0,0,19,14.79a2.64,2.64,0,0,0,1.07-2.32,2.41,2.41,0,0,0-1.8-2.57,7.22,7.22,0,0,0-2-.22V9h1c3.2,0,5.43,1.43,5.43,3.47a2.73,2.73,0,0,1-1.46,2.36,21.46,21.46,0,0,1-1.95,1m6.05,4.75a1.16,1.16,0,0,0-.86.38c-.13.17-.15.34-.15.87v3.62h-.85l-.23-1.51a5.09,5.09,0,0,1-4.66,2.68A5.34,5.34,0,0,1,15,25.14c-1.68-1.49-2.18-3.47-2.18-5.75V11.31c0-1.22-.3-1.63-1.16-1.63H10.45V9H15s0,10.22,0,10.35c0,2.64.27,4,1,5.17a3.17,3.17,0,0,0,2.59,1.41A3.22,3.22,0,0,0,21.49,24a6.89,6.89,0,0,0,.4-2.51c0-.72-.23-.93-1.06-.93h-.42v-.69h4.87Z" transform="translate(-3.07 -3)"/><path class="cls-1" d="M54,10.44c0-1.61.31-2.34,1.7-2.42l1.07-3.83H55.51c-4.14,0-5.85,1.16-5.85,5.57v2H47.48v3.69h2.18v13.4H54V15.45h3.92v13.4H62.3V11.76H54Z" transform="translate(-3.07 -3)"/><path class="cls-1" d="M139,21.16c0,2.46-.65,4.3-3,4.3s-3-1.84-3-4.3V19.38c0-2.73.88-4.24,3-4.24s3,1.51,3,4.24Zm-3-9.71c-4.69,0-7.39,2.67-7.39,7.79v2.05c0,4.79,2.43,7.87,7.39,7.87,5.16,0,7.38-3.18,7.38-7.87V19.24c0-5.12-2.63-7.79-7.38-7.79" transform="translate(-3.07 -3)"/><path class="cls-1" d="M98.26,23.28c0,4.41,1.71,5.57,5.84,5.57h1.83L104.87,25h-.32c-1.61,0-2-.72-2-2.43V15.45h3l3.73,13.4h4.22l3.17-11.35,3.13,11.35h4.25l4.75-17.09h-4.25l-3,10.91-3-10.91h-3.67l-3,10.91-3-10.91H102.6V8H98.26Z" transform="translate(-3.07 -3)"/><path class="cls-1" d="M145.46,13.21c.33,0,.45-.11.45-.32s-.12-.3-.43-.3h-.39v.62Zm-.66,1v-1.9h.7c.53,0,.71.32.71.58a.54.54,0,0,1-.42.55l.51.77H146l-.47-.73h-.39v.73Zm.68.6A1.52,1.52,0,1,0,144,13.29a1.53,1.53,0,0,0,1.52,1.52m0-3.36a1.84,1.84,0,1,1-1.84,1.84,1.85,1.85,0,0,1,1.84-1.84" transform="translate(-3.07 -3)"/><path class="cls-1" d="M70.55,10.44c0-1.61.3-2.34,1.7-2.42l1.07-3.83H72.05c-4.14,0-5.85,1.16-5.85,5.57v2H64v3.69H66.2v13.4h4.35Z" transform="translate(-3.07 -3)"/><path class="cls-1" d="M91.86,11.76l-3,10.94L85,11.76H78.8V8H74.45v3.76H72.27v3.69h2.18v7.83c0,4.41,1.71,5.57,5.85,5.57h.78L82.14,25h-1.4c-1.6,0-1.94-.72-1.94-2.43V15.45h3L87,28.85c-.52,1.5-1.08,2.28-3,2.32L82.9,35c4.78,0,6.68-.79,8.22-5.37l5-17.87Z" transform="translate(-3.07 -3)"/></svg>